<svg xmlns="http://www.w3.org/2000/svg" xmlns:xlink="http://www.w3.org/1999/xlink" width="2160" zoomAndPan="magnify" viewBox="0 0 1620 1619.99993" height="2160" preserveAspectRatio="xMidYMid meet" version="1.0"><defs><g/></defs><rect x="-162" width="1944" fill="#ffffff" y="-161.999993" height="1943.999916" fill-opacity="1"/><rect x="-162" width="1944" fill="#ffffff" y="-161.999993" height="1943.999916" fill-opacity="1"/><rect x="-162" width="1944" fill="#000000" y="-161.999993" height="1943.999916" fill-opacity="1"/><g fill="#fe5626" fill-opacity="1"><g transform="translate(40.845597, 1145.121419)"><g><path d="M 416.734375 -169.609375 C 427.066406 -163.523438 432.234375 -155.625 432.234375 -145.90625 C 432.234375 -139.820312 430.710938 -134.347656 427.671875 -129.484375 C 422.804688 -119.148438 415.207031 -113.984375 404.875 -113.984375 C 398.789062 -113.984375 393.015625 -115.503906 387.546875 -118.546875 L 126.75 -265.359375 C 113.375 -272.648438 106.6875 -284.195312 106.6875 -300 C 106.6875 -313.375 113.375 -323.710938 126.75 -331.015625 L 387.546875 -476 C 394.234375 -479.644531 400.007812 -481.46875 404.875 -481.46875 C 414.601562 -481.46875 422.203125 -476 427.671875 -465.0625 C 430.710938 -460.800781 432.234375 -455.328125 432.234375 -448.640625 C 432.234375 -438.910156 427.066406 -431.007812 416.734375 -424.9375 L 186.9375 -298.1875 Z M 416.734375 -169.609375 "/></g></g></g><g fill="#fe5626" fill-opacity="1"><g transform="translate(552.398053, 1145.121419)"><g><path d="M -9.125 149.546875 C -9.125 139.210938 -6.234375 131.15625 -0.453125 125.375 C 5.316406 119.601562 13.367188 116.71875 23.703125 116.71875 C 50.453125 116.71875 68.382812 112.15625 77.5 103.03125 C 86.625 93.914062 91.1875 75.984375 91.1875 49.234375 L 91.1875 -417.640625 C 91.1875 -427.972656 94.070312 -436.023438 99.84375 -441.796875 C 105.625 -447.578125 113.679688 -450.46875 124.015625 -450.46875 C 134.347656 -450.46875 142.398438 -447.578125 148.171875 -441.796875 C 153.953125 -436.023438 156.84375 -427.972656 156.84375 -417.640625 L 156.84375 49.234375 C 156.84375 94.222656 145.898438 127.660156 124.015625 149.546875 C 102.128906 171.429688 68.691406 182.375 23.703125 182.375 C 1.816406 182.375 -9.125 171.429688 -9.125 149.546875 Z M 113.078125 -527.96875 C 100.304688 -527.96875 90.578125 -531.460938 83.890625 -538.453125 C 77.203125 -545.453125 73.859375 -555.03125 73.859375 -567.1875 L 73.859375 -592.71875 C 73.859375 -617.644531 86.929688 -630.109375 113.078125 -630.109375 L 136.78125 -630.109375 C 148.9375 -630.109375 158.207031 -626.914062 164.59375 -620.53125 C 170.976562 -614.144531 174.171875 -604.875 174.171875 -592.71875 L 174.171875 -567.1875 C 174.171875 -555.03125 170.828125 -545.453125 164.140625 -538.453125 C 157.453125 -531.460938 148.332031 -527.96875 136.78125 -527.96875 Z M 113.078125 -527.96875 "/></g></g></g><g fill="#fe5626" fill-opacity="1"><g transform="translate(773.067164, 1145.121419)"><g><path d="M 224.328125 0 C 179.335938 0 145.898438 -10.941406 124.015625 -32.828125 C 102.128906 -54.710938 91.1875 -88.148438 91.1875 -133.140625 L 91.1875 -605.484375 C 91.1875 -615.816406 94.070312 -623.867188 99.84375 -629.640625 C 105.625 -635.421875 113.679688 -638.3125 124.015625 -638.3125 C 134.347656 -638.3125 142.398438 -635.421875 148.171875 -629.640625 C 153.953125 -623.867188 156.84375 -615.816406 156.84375 -605.484375 L 156.84375 -133.140625 C 156.84375 -106.992188 161.550781 -89.207031 170.96875 -79.78125 C 180.394531 -70.363281 198.179688 -65.65625 224.328125 -65.65625 C 235.265625 -65.65625 243.617188 -62.765625 249.390625 -56.984375 C 255.171875 -51.210938 258.0625 -43.160156 258.0625 -32.828125 C 258.0625 -22.492188 255.171875 -14.4375 249.390625 -8.65625 C 243.617188 -2.882812 235.265625 0 224.328125 0 Z M 224.328125 0 "/></g></g></g><g fill="#fe5626" fill-opacity="1"><g transform="translate(1040.241068, 1145.121419)"><g><path d="M 411.25 -331.015625 C 424.625 -323.710938 431.3125 -313.375 431.3125 -300 C 431.3125 -284.195312 424.625 -272.648438 411.25 -265.359375 L 150.453125 -118.546875 C 144.984375 -115.503906 139.210938 -113.984375 133.140625 -113.984375 C 123.410156 -113.984375 115.8125 -119.148438 110.34375 -129.484375 C 107.300781 -134.347656 105.78125 -139.820312 105.78125 -145.90625 C 105.78125 -155.625 110.945312 -163.523438 121.28125 -169.609375 L 351.078125 -298.1875 L 121.28125 -424.9375 C 110.945312 -431.007812 105.78125 -438.910156 105.78125 -448.640625 C 105.78125 -455.328125 107.300781 -460.800781 110.34375 -465.0625 C 115.8125 -476 123.410156 -481.46875 133.140625 -481.46875 C 137.992188 -481.46875 143.765625 -479.644531 150.453125 -476 Z M 411.25 -331.015625 "/></g></g></g></svg>